<svg width="19" height="24" viewBox="0 0 19 24" fill="none" xmlns="http://www.w3.org/2000/svg">
<path d="M1.33333 21.3333C1.33333 22.8 2.53333 24 4 24H14.6667C16.1333 24 17.3333 22.8 17.3333 21.3333V8C17.3333 6.53333 16.1333 5.33333 14.6667 5.33333H4C2.53333 5.33333 1.33333 6.53333 1.33333 8V21.3333ZM17.3333 1.33333H14L13.0533 0.386667C12.8133 0.146667 12.4667 0 12.12 0H6.54667C6.2 0 5.85333 0.146667 5.61333 0.386667L4.66667 1.33333H1.33333C0.6 1.33333 0 1.93333 0 2.66667C0 3.4 0.6 4 1.33333 4H17.3333C18.0667 4 18.6667 3.4 18.6667 2.66667C18.6667 1.93333 18.0667 1.33333 17.3333 1.33333Z" fill="#BB4C4C"/>
</svg>
