<svg width="28" height="28" viewBox="0 0 28 28" fill="none" xmlns="http://www.w3.org/2000/svg">
<g opacity="0.88">
<path d="M14 28C6.25882 28 0 21.7412 0 14C0 6.25882 6.25882 0 14 0C21.7412 0 28 6.25882 28 14C28 21.7412 21.6588 28 14 28ZM14 1.64706C7.16471 1.64706 1.64706 7.16471 1.64706 14C1.64706 20.8353 7.16471 26.3529 14 26.3529C20.8353 26.3529 26.3529 20.8353 26.3529 14C26.3529 7.16471 20.7529 1.64706 14 1.64706Z" fill="#515151"/>
<path d="M5.92944 24.1297L4.44708 23.4709C4.85885 22.4827 6.17649 21.9062 7.57649 21.2474C8.97649 20.5885 10.7059 19.8474 10.7059 18.9415V17.7062C10.2118 17.2944 9.38826 16.3885 9.22355 15.0709C8.81179 14.6591 8.15296 13.918 8.15296 12.9297C8.15296 12.3533 8.40002 11.8591 8.56473 11.5297C8.40002 10.8709 8.23532 9.63561 8.23532 8.64737C8.23532 5.43561 10.4588 3.29443 14 3.29443C14.9883 3.29443 16.2236 3.54149 16.8824 4.28267C18.4471 4.61208 19.7647 6.42385 19.7647 8.64737C19.7647 10.0474 19.5177 11.2003 19.353 11.7768C19.5177 12.0238 19.6824 12.4356 19.6824 12.9297C19.6824 14.0003 19.1059 14.7415 18.6118 15.0709C18.4471 16.3885 17.7059 17.2121 17.2118 17.6238V18.9415C17.2118 19.6827 18.6941 20.2591 20.0118 20.7533C21.5765 21.3297 23.2236 21.9886 23.8 23.3062L22.2353 23.8827C21.9883 23.2238 20.6706 22.7297 19.4353 22.318C17.6236 21.6591 15.5647 20.918 15.5647 19.0238V16.8827L15.9765 16.6356C15.9765 16.6356 16.9647 15.9768 16.9647 14.6591V14.0827L17.4588 13.8356C17.5412 13.8356 17.953 13.5886 17.953 12.9297C17.953 12.765 17.7883 12.518 17.7059 12.4356L17.3765 12.1062L17.5412 11.6944C17.5412 11.6944 17.953 10.3768 17.953 8.72973C17.953 7.16502 17.0471 6.01208 16.3059 6.01208H15.8118L15.5647 5.60032C15.5647 5.2709 14.9883 4.94149 14 4.94149C11.4471 4.94149 9.88238 6.34149 9.88238 8.64737C9.88238 9.71796 10.2941 11.5297 10.2941 11.5297L10.3765 11.9415L10.0471 12.3533C9.96473 12.3533 9.80002 12.6003 9.80002 12.9297C9.80002 13.3415 10.2941 13.8356 10.5412 14.0003L10.8706 14.2474V14.6591C10.8706 15.8944 11.9412 16.5533 11.9412 16.6356L12.353 16.8827V19.0238C12.353 21.0003 10.2118 21.9886 8.23532 22.8121C7.32944 23.1415 6.09414 23.718 5.92944 24.1297Z" fill="#515151"/>
</g>
</svg>
